<svg width="32" height="33" viewBox="0 0 32 33" fill="none" xmlns="http://www.w3.org/2000/svg">
<path d="M16.0071 8.07141C11.4643 8.07141 7.79999 11.7357 7.79999 16.2786C7.79999 20.8214 11.4643 24.4857 16.0071 24.4857C20.55 24.4857 24.2143 20.8214 24.2143 16.2786C24.2143 11.7357 20.55 8.07141 16.0071 8.07141ZM16.0071 21.6143C13.0714 21.6143 10.6714 19.2214 10.6714 16.2786C10.6714 13.3357 13.0643 10.9428 16.0071 10.9428C18.95 10.9428 21.3428 13.3357 21.3428 16.2786C21.3428 19.2214 18.9428 21.6143 16.0071 21.6143ZM26.4643 7.73569C26.4643 8.79998 25.6071 9.64998 24.55 9.64998C23.4857 9.64998 22.6357 8.79284 22.6357 7.73569C22.6357 6.67855 23.4928 5.82141 24.55 5.82141C25.6071 5.82141 26.4643 6.67855 26.4643 7.73569ZM31.9 9.67855C31.7786 7.11427 31.1928 4.84284 29.3143 2.97141C27.4428 1.09998 25.1714 0.514265 22.6071 0.385693C19.9643 0.235693 12.0428 0.235693 9.39999 0.385693C6.84284 0.507122 4.57141 1.09284 2.69284 2.96426C0.814272 4.83569 0.2357 7.10712 0.107129 9.67141C-0.0428711 12.3143 -0.0428711 20.2357 0.107129 22.8785C0.228557 25.4428 0.814272 27.7143 2.69284 29.5857C4.57141 31.4571 6.8357 32.0428 9.39999 32.1714C12.0428 32.3214 19.9643 32.3214 22.6071 32.1714C25.1714 32.05 27.4428 31.4643 29.3143 29.5857C31.1857 27.7143 31.7714 25.4428 31.9 22.8785C32.05 20.2357 32.05 12.3214 31.9 9.67855ZM28.4857 25.7143C27.9286 27.1143 26.85 28.1928 25.4428 28.7571C23.3357 29.5928 18.3357 29.4 16.0071 29.4C13.6786 29.4 8.67141 29.5857 6.57141 28.7571C5.17141 28.2 4.09284 27.1214 3.52856 25.7143C2.69284 23.6071 2.8857 18.6071 2.8857 16.2786C2.8857 13.95 2.69999 8.94284 3.52856 6.84284C4.0857 5.44284 5.16427 4.36426 6.57141 3.79998C8.67856 2.96426 13.6786 3.15712 16.0071 3.15712C18.3357 3.15712 23.3428 2.97141 25.4428 3.79998C26.8428 4.35712 27.9214 5.43569 28.4857 6.84284C29.3214 8.94998 29.1286 13.95 29.1286 16.2786C29.1286 18.6071 29.3214 23.6143 28.4857 25.7143Z" fill="#FF6000"/>
</svg>
