<svg width="38" height="27" viewBox="0 0 38 27" fill="none" xmlns="http://www.w3.org/2000/svg">
<path d="M37.2069 4.22578C36.7686 2.55937 35.4815 1.25156 33.8466 0.808594C30.8828 0 19 0 19 0C19 0 7.11717 0 4.15342 0.808594C2.51849 1.25156 1.23142 2.55937 0.793116 4.22578C0 7.24219 0 13.5281 0 13.5281C0 13.5281 0 19.8141 0.793116 22.8305C1.23142 24.4969 2.51849 25.7484 4.15342 26.1914C7.11717 27 19 27 19 27C19 27 30.8828 27 33.8466 26.1914C35.4815 25.7484 36.7686 24.4898 37.2069 22.8305C38 19.8141 38 13.5281 38 13.5281C38 13.5281 38 7.24219 37.2069 4.22578ZM15.1179 19.2375V7.81875L25.0458 13.5281L15.1179 19.2375Z" fill="#FF6000"/>
</svg>
