<svg width="28" height="32" viewBox="0 0 28 32" fill="none" xmlns="http://www.w3.org/2000/svg">
<g clip-path="url(#clip0_108_23)">
<path d="M28 13.1187C25.2475 13.1246 22.5627 12.2654 20.325 10.6625V21.8375C20.3244 23.9072 19.6918 25.9273 18.512 27.6277C17.3321 29.3281 15.6612 30.6278 13.7227 31.3528C11.7842 32.0779 9.67049 32.1938 7.66434 31.685C5.65818 31.1762 3.85519 30.0671 2.49649 28.5058C1.1378 26.9446 0.288184 25.0057 0.0612716 22.9485C-0.16564 20.8914 0.240971 18.8139 1.22672 16.9941C2.21248 15.1743 3.73038 13.6988 5.57742 12.765C7.42446 11.8312 9.51258 11.4836 11.5625 11.7688V17.3875C10.6252 17.0924 9.61857 17.1011 8.68644 17.4122C7.7543 17.7233 6.94429 18.3209 6.37206 19.1198C5.79983 19.9187 5.49465 20.878 5.50008 21.8606C5.50551 22.8433 5.82128 23.7991 6.40231 24.5916C6.98333 25.3841 7.7999 25.9728 8.73542 26.2736C9.67094 26.5744 10.6776 26.5719 11.6116 26.2664C12.5456 25.961 13.3592 25.3683 13.9363 24.5729C14.5134 23.7776 14.8244 22.8202 14.825 21.8375V0H20.325C20.3219 0.465165 20.3617 0.929627 20.4438 1.3875C20.635 2.40813 21.0324 3.37903 21.6116 4.24087C22.1909 5.10271 22.9397 5.83739 23.8125 6.4C25.0549 7.22053 26.5111 7.65742 28 7.65625V13.1187Z" fill="#FF6000"/>
</g>
<defs>
<clipPath id="clip0_108_23">
<rect width="28" height="32" fill="white"/>
</clipPath>
</defs>
</svg>
